<?xml version="1.0" encoding="UTF-8" standalone="no"?>
<svg width="298px" height="84px" viewBox="0 0 298 84" version="1.1" xmlns="http://www.w3.org/2000/svg" xmlns:xlink="http://www.w3.org/1999/xlink" xmlns:sketch="http://www.bohemiancoding.com/sketch/ns">
    <title>landing_branches</title>
    <description>Created with Sketch (http://www.bohemiancoding.com/sketch)</description>
    <defs></defs>
    <g id="Page-1" stroke="none" stroke-width="1" fill="none" fill-rule="evenodd" sketch:type="MSPage">
        <rect id="Rectangle-15" fill="#FFFFFF" sketch:type="MSShapeGroup" x="-350" y="-224" width="909" height="530"></rect>
        <g id="git-lines" sketch:type="MSLayerGroup" transform="translate(-3.000000, -24.000000)">
            <path d="M104,99 C135.908967,98.9999943 133.03125,99.000001 172.652344,99.0000004 C212.273438,99.0000004 236.082031,65.04297 272.28125,65.04297 C394.28125,65.04297 349.371094,65.04297 349.371094,65.04297" id="Path-3" stroke="#D5D5D5" sketch:type="MSShapeGroup" transform="translate(230.500000, 82.000000) scale(1, -1) translate(-230.500000, -82.000000) "></path>
            <rect id="Rectangle-14" fill="#FFFFFF" sketch:type="MSShapeGroup" x="101" y="63" width="87" height="53"></rect>
            <path d="M8,49 C39.908967,48.9999943 37.03125,49.000001 76.6523438,49.0000004 C116.273438,49.0000004 143.800781,31.5 180,31.5 C302,31.5 345.5,31.5 345.5,31.5" id="Path-3" stroke="#D5D5D5" sketch:type="MSShapeGroup"></path>
            <path d="M8,67 C39.908967,66.9999943 37.03125,67.000001 76.6523438,67.0000004 C116.273438,67.0000004 143.800781,49.5 180,49.5 C302,49.5 345.5,49.5 345.5,49.5" id="Path-3" stroke="#D5D5D5" sketch:type="MSShapeGroup" transform="translate(177.000000, 58.000000) scale(1, -1) translate(-177.000000, -58.000000) "></path>
            <rect id="Rectangle-14" fill="#FFFFFF" sketch:type="MSShapeGroup" x="0" y="30" width="87" height="53"></rect>
            <path d="M11.5,48.5 L87.7364731,48.5" id="Line" stroke="#D5D5D5" sketch:type="MSShapeGroup"></path>
            <rect id="Rectangle-14" fill="#FFFFFF" sketch:type="MSShapeGroup" x="290" y="0" width="87" height="146"></rect>
            <circle id="Oval-1" fill="#E2C6AB" sketch:type="MSShapeGroup" cx="11" cy="49" r="5"></circle>
            <circle id="Oval-1" fill="#E2C6AB" sketch:type="MSShapeGroup" cx="88" cy="49" r="5"></circle>
            <circle id="Oval-1" fill="#E2C6AB" sketch:type="MSShapeGroup" cx="288" cy="32" r="5"></circle>
            <circle id="Oval-1" fill="#E2C6AB" sketch:type="MSShapeGroup" cx="287" cy="100" r="5"></circle>
            <circle id="Oval-1" fill="#E2C6AB" sketch:type="MSShapeGroup" cx="189" cy="67" r="5"></circle>
            <circle id="Oval-1" fill="#E2C6AB" sketch:type="MSShapeGroup" cx="287" cy="68" r="5"></circle>
        </g>
        <g id="1-+-Line-+-code" sketch:type="MSLayerGroup" transform="translate(297.000000, -8.000000)" font-size="24" font-family="Source Code Pro" fill="#D5D5D5" font-weight="260">
            <text id="1" sketch:type="MSTextLayer">
                <tspan x="0" y="28">1</tspan>
                <tspan x="0" y="59">2</tspan>
                <tspan x="0" y="90">3</tspan>
            </text>
        </g>
    </g>
</svg>