<?xml version="1.0" encoding="UTF-8" standalone="no"?>
<svg width="30px" height="98px" viewBox="0 0 30 98" version="1.1" xmlns="http://www.w3.org/2000/svg" xmlns:xlink="http://www.w3.org/1999/xlink" xmlns:sketch="http://www.bohemiancoding.com/sketch/ns">
    <title>landing_numbers</title>
    <description>Created with Sketch (http://www.bohemiancoding.com/sketch)</description>
    <defs></defs>
    <g id="Page-1" stroke="none" stroke-width="1" fill="none" fill-rule="evenodd" sketch:type="MSPage">
        <rect id="Rectangle-15" fill="#FFFFFF" sketch:type="MSShapeGroup" x="-644" y="-216" width="909" height="530"></rect>
        <g id="git-lines" sketch:type="MSLayerGroup" transform="translate(-297.000000, -16.000000)">
            <path d="M104,99 C135.908967,98.9999943 133.03125,99.000001 172.652344,99.0000004 C212.273438,99.0000004 236.082031,65.04297 272.28125,65.04297 C394.28125,65.04297 349.371094,65.04297 349.371094,65.04297" id="Path-3" stroke="#D5D5D5" sketch:type="MSShapeGroup" transform="translate(230.500000, 82.000000) scale(1, -1) translate(-230.500000, -82.000000) "></path>
            <path d="M8,49 C39.908967,48.9999943 37.03125,49.000001 76.6523438,49.0000004 C116.273438,49.0000004 143.800781,31.5 180,31.5 C302,31.5 345.5,31.5 345.5,31.5" id="Path-3" stroke="#D5D5D5" sketch:type="MSShapeGroup"></path>
            <path d="M8,67 C39.908967,66.9999943 37.03125,67.000001 76.6523438,67.0000004 C116.273438,67.0000004 143.800781,49.5 180,49.5 C302,49.5 345.5,49.5 345.5,49.5" id="Path-3" stroke="#D5D5D5" sketch:type="MSShapeGroup" transform="translate(177.000000, 58.000000) scale(1, -1) translate(-177.000000, -58.000000) "></path>
            <rect id="Rectangle-14" fill="#FFFFFF" sketch:type="MSShapeGroup" x="290" y="0" width="87" height="146"></rect>
        </g>
        <g id="1-+-Line-+-code" sketch:type="MSLayerGroup" transform="translate(3.000000, 0.000000)">
            <text id="1" sketch:type="MSTextLayer" font-family="Source Code Pro" font-size="24" font-weight="260" fill="#D5D5D5">
                <tspan x="0" y="28">1</tspan>
                <tspan x="0" y="59">2</tspan>
                <tspan x="0" y="90">3</tspan>
            </text>
            <path d="M22.5,3.5 L22.5,97.5053177" id="Line" stroke="#EEEEEE" stroke-linecap="square" sketch:type="MSShapeGroup"></path>
        </g>
    </g>
</svg>