<?xml version="1.0" encoding="UTF-8" standalone="no"?>
<svg width="163px" height="110px" viewBox="0 0 163 110" version="1.1" xmlns="http://www.w3.org/2000/svg" xmlns:xlink="http://www.w3.org/1999/xlink" xmlns:sketch="http://www.bohemiancoding.com/sketch/ns">
    <title>landing_logo</title>
    <description>Created with Sketch (http://www.bohemiancoding.com/sketch)</description>
    <defs></defs>
    <g id="Page-1" stroke="none" stroke-width="1" fill="none" fill-rule="evenodd" sketch:type="MSPage">
        <rect id="Rectangle-15" fill="#FFFFFF" sketch:type="MSShapeGroup" x="-179" y="-171" width="909" height="530"></rect>
        <g id="logo" sketch:type="MSLayerGroup" transform="translate(5.000000, 6.000000)">
            <text id="git" sketch:type="MSTextLayer" font-family="Adelle" font-size="48" font-weight="bold" letter-spacing="1" fill="#413931">
                <tspan x="0" y="87">git</tspan>
            </text>
            <text id="orial" sketch:type="MSTextLayer" font-family="Gotham ExtraLight" font-size="50" font-weight="normal" letter-spacing="-1.50000012" fill="#98591A">
                <tspan x="63" y="87">orial</tspan>
            </text>
            <g id="Book" transform="translate(51.000000, 0.000000)">
                <path d="M17,1 C13,-1 8,0 8,0 L8,28 C8,28 14.2696126,28.829834 17,30 C18.9362793,30.829834 22,33 22,33 L22,6 C22,6 21,2.99999997 17,1 Z" id="Rectangle-3" fill="#937C66" sketch:type="MSShapeGroup"></path>
                <path d="M33,1 C29,-1 24,0 24,0 L24,28 C24,28 30.2696126,28.829834 33,30 C34.9362793,30.829834 38,33 38,33 L38,6 C38,6 37,2.99999997 33,1 Z" id="Rectangle-3" fill="#937C66" sketch:type="MSShapeGroup" transform="translate(31.000000, 16.500000) scale(-1, 1) translate(-31.000000, -16.500000) "></path>
                <g id="Rectangle-5-+-Rectangle-6" transform="translate(4.000000, 2.000000)" fill="#937C66" sketch:type="MSShapeGroup">
                    <rect id="Rectangle-5" x="0" y="0" width="2" height="30"></rect>
                    <path d="M11,29 C8.30885115,28.1590159 2,28 2,28 L2,30 C2,30 8.31124665,30.2829991 11,31 C13.3112467,31.6163324 17,34 17,34 L18,33 C18,33 13.6421844,29.8256826 11,29 Z" id="Rectangle-6"></path>
                </g>
                <g id="Rectangle-5-+-Rectangle-6" transform="translate(0.000000, 4.000000)" fill="#937C66" sketch:type="MSShapeGroup">
                    <rect id="Rectangle-5" x="0" y="0" width="2" height="30"></rect>
                    <path d="M13,30 C10.3088511,29.1590159 0,30 0,30 L0,34 C0,34 7,34.0000002 11,34 C15,34 21,36 21,36 L21,33 C21,33 15.6421844,30.8256826 13,30 Z" id="Rectangle-6"></path>
                </g>
                <g id="Rectangle-5-+-Rectangle-6" transform="translate(33.000000, 19.000000) scale(-1, 1) translate(-33.000000, -19.000000) translate(24.000000, 2.000000)" fill="#937C66" sketch:type="MSShapeGroup">
                    <rect id="Rectangle-5" x="0" y="0" width="2" height="30"></rect>
                    <path d="M11,29 C8.30885115,28.1590159 2,28 2,28 L2,30 C2,30 8.31124665,30.2829991 11,31 C13.3112467,31.6163324 17,34 17,34 L18,33 C18,33 13.6421844,29.8256826 11,29 Z" id="Rectangle-6"></path>
                </g>
                <path d="M23,35 C21,35 21,36 21,36 L21,40 L25,40 L25,36 C25,36 25,35 23,35 Z" id="Rectangle-13" fill="#937C66" sketch:type="MSShapeGroup"></path>
                <g id="Rectangle-5-+-Rectangle-6" transform="translate(35.500000, 22.000000) scale(-1, 1) translate(-35.500000, -22.000000) translate(25.000000, 4.000000)" fill="#937C66" sketch:type="MSShapeGroup">
                    <rect id="Rectangle-5" x="0" y="0" width="2" height="30"></rect>
                    <path d="M13,30 C10.3088511,29.1590159 0,30 0,30 L0,34 C0,34 7,34.0000002 11,34 C15,34 21,36 21,36 L21,33 C21,33 15.6421844,30.8256826 13,30 Z" id="Rectangle-6"></path>
                </g>
                <text id="+-" sketch:type="MSTextLayer" font-family="Helvetica Neue" font-size="18" font-weight="bold" letter-spacing="1.33333337" fill="#FFFFFF">
                    <tspan x="10" y="21">+ </tspan>
                </text>
                <text id="-" sketch:type="MSTextLayer" font-family="Helvetica Neue" font-size="18" font-weight="bold" letter-spacing="1.3" fill="#FFFFFF">
                    <tspan x="27" y="22">-</tspan>
                </text>
            </g>
        </g>
    </g>
</svg>